# xmcd CD database file generated by Grip 2.91
# 
# Track frame offsets:
#       150
#       12928
#       23650
#       36348
#       48175
#       66508
#       84250
#       98127
#       110352
#       125913
#       138200
# 
# Disc length: 2066 seconds
# 
# Revision: 3
# Processed by: cddbd v1.4b42PL0 Copyright (c) Steve Scherf et al.
# Submitted via: Grip 2.91
# 
DISCID=8c08100b
DTITLE=Chitlin' Fooks - Chitlin' Fooks
DYEAR=1900
DGENRE=
TTITLE0=One Week Later
TTITLE1=The Battle
TTITLE2=Not Enough Tears
TTITLE3=Picture Book Memories
TTITLE4=Mother's Last Words to Her Son
TTITLE5=You Dream of Him
TTITLE6=How Many Times
TTITLE7=Juanita
TTITLE8=Homework for Sale
TTITLE9=Seen it All
TTITLE10=Mississippi Delta Blues
EXTD=
EXTT0=
EXTT1=
EXTT2=
EXTT3=
EXTT4=
EXTT5=
EXTT6=
EXTT7=
EXTT8=
EXTT9=
EXTT10=
PLAYORDER=
